# xmcd CD database file
#
# Track frame offsets:
#	150
#	16347
#	35057
#	49757
#	62314
#	81837
#	94832
#	112090
#	124779
#	141047
#	155425
#	167142
#	187950
#	206797
#	267290
#
# Disc length: 3760 seconds
#
# Revision: 0
# Processed by: cddbd v1.4PL0 Copyright (c) Steve Scherf et al.
# Submitted via: CDex 1.40Beta9
#
DISCID=ce0eae0f
DTITLE=David Honeyboy Edwards - Shake 'Em On Down
DYEAR=1999
DGENRE=Blues
TTITLE0=High Water Everywhere
TTITLE1=Drop Down Mama
TTITLE2=Monkey Face Woman
TTITLE3=Shake 'Em On Down
TTITLE4=Louise Louise Blues
TTITLE5=Pony Blues
TTITLE6=Anna Lee
TTITLE7=Standing On The Corner
TTITLE8=West Memphis Blues
TTITLE9=Bald Headed Woman
TTITLE10=Bullfrog Blues
TTITLE11=Gambling Man
TTITLE12=Take Me In Your Arms
TTITLE13=Interview
TTITLE14=Lord I Got To Go
EXTD=YEAR: 1999 ID3G: 0
EXTT0=
EXTT1=
EXTT2=
EXTT3=
EXTT4=
EXTT5=
EXTT6=
EXTT7=
EXTT8=
EXTT9=
EXTT10=
EXTT11=
EXTT12=
EXTT13=
EXTT14=
PLAYORDER=
